<svg width="42" height="66" viewBox="0 0 42 66" fill="none" xmlns="http://www.w3.org/2000/svg">
<g clip-path="url(#clip0)">
<path d="M8.35413 26.1227C8.42143 26.304 8.49886 26.4839 8.58064 26.6673C8.54017 26.4732 8.46332 26.2884 8.35413 26.1227Z" fill="white"/>
<path d="M9.64662 23.5789C9.64083 23.5962 9.63432 23.6135 9.62781 23.6316C9.63774 23.6155 9.64415 23.5976 9.64662 23.5789Z" fill="white"/>
<path d="M32.3541 23.5789C32.3567 23.5974 32.3628 23.6153 32.3722 23.6316C32.37 23.6135 32.3599 23.5947 32.3541 23.5789Z" fill="white"/>
<path d="M33.6459 26.1227C33.5367 26.2884 33.4599 26.4732 33.4194 26.6673C33.5048 26.4839 33.5786 26.3048 33.6459 26.1227Z" fill="white"/>
<path d="M38.7164 0C38.7164 0 25.1337 14.0224 27.8757 24.4377C29.2984 31.2762 27.1694 31.334 27.1694 31.334C26.849 30.8029 26.3349 30.4164 25.7351 30.2556C25.1699 31.4517 25.722 32.3206 25.722 32.3206C24.994 31.4171 23.5886 31.5218 23.5886 31.5218C23.6823 32.229 23.8358 32.9271 24.0474 33.6085C22.0625 32.9694 19.9251 32.978 17.9454 33.633C18.1613 32.9439 18.3175 32.2376 18.4122 31.5218C18.4122 31.5218 17.0068 31.4171 16.2788 32.3206C16.2788 32.3206 16.8309 31.4539 16.2657 30.2556C16.2657 30.2556 15.2671 30.4174 14.8314 31.334C14.8314 31.334 12.7024 31.2762 14.1251 24.4377C16.8657 14.0224 3.28444 0 3.28444 0C-0.960644 7.31237 -3.1078 25.3694 9.78088 30.8559L9.51167 29.4113C7.02802 28.6832 6.85216 26.2607 6.74651 25.2119C6.95058 24.8869 7.8986 25.4055 8.35452 26.1256C7.75387 24.5056 7.87182 22.9563 8.4334 22.1256C9.26707 22.3842 9.69693 23.3001 9.64628 23.581C9.7845 23.1802 9.79897 22.8075 9.69114 20.7316C9.65424 15.9263 5.89691 6.71144 5.89691 6.71144C5.89691 6.71144 10.5878 15.6547 11.6415 22.8263C12.6951 29.9978 10.4278 33.1029 10.4278 33.1029C10.9801 33.8524 11.4612 34.6515 11.8651 35.49C12.3289 36.4875 11.9975 36.8262 12.2349 37.2126C12.3507 37.3694 12.6582 37.5247 12.6582 37.5247C15.0912 38.8804 16.8266 40.8118 17.0582 42.4593C17.3042 44.213 16.2216 45.3824 15.0862 47.443C13.9507 49.5037 14.1982 50.6254 15.0862 51.979C15.9741 53.3325 18.9477 54.7894 20.906 51.0588C20.906 51.0588 19.3862 51.1563 19.1076 48.5568C19.1076 48.5568 19.6453 47.6901 21.0615 47.6901C22.4778 47.6901 22.967 48.5568 22.967 48.5568C22.684 51.157 21.1679 51.0588 21.1679 51.0588C22.4785 54.6052 26.1005 53.3318 26.9885 51.979C27.8764 50.6261 28.1239 49.5044 26.9885 47.443C25.853 45.3816 24.7697 44.2123 25.0164 42.4593C25.2473 40.8147 26.9769 38.8862 29.4048 37.5312H29.4424C29.4794 37.5037 29.5148 37.4777 29.543 37.4524C29.6588 37.3896 29.7753 37.3275 29.894 37.2668C29.894 37.2668 29.8593 37.2285 29.792 37.1599C29.9758 36.793 29.6907 36.442 30.1343 35.4864C30.5394 34.6491 31.0215 33.8512 31.5744 33.1029C31.5744 33.1029 29.3093 29.9971 30.3608 22.8263C31.4123 15.6554 36.1053 6.70927 36.1053 6.70927C36.1053 6.70927 32.348 15.9241 32.3104 20.7295C32.2033 22.8053 32.2177 23.178 32.356 23.5789C32.3053 23.2979 32.7352 22.382 33.5689 22.1235C34.1304 22.9541 34.2477 24.5034 33.6477 26.1235C34.1036 25.4012 35.0517 24.8848 35.2557 25.2098C35.1501 26.2585 34.9742 28.6811 32.4906 29.4091L32.2206 30.8537C45.1071 25.3694 42.9614 7.31237 38.7164 0Z" fill="white"/>
<path d="M21.0619 52.231C21.0619 52.231 21.2971 53.9797 22.7025 54.0151C22.227 54.0367 21.5142 54.1451 21.114 54.1191C20.7116 54.1451 19.8837 54.0367 19.4076 54.0151C20.8137 53.9797 21.0619 52.231 21.0619 52.231Z" fill="white"/>
<path d="M14.0545 40.2888C12.6144 41.3065 12.4733 43.7962 15.1552 45.0024C11.4124 44.4246 11.7358 40.4997 13.3583 39.6489C12.9914 39.2199 12.1136 38.6673 11.3841 38.512C9.93027 40.9418 10.1365 43.6272 9.94258 43.9891C9.72186 44.4008 8.95621 45.8555 7.22879 45.5059C7.89964 46.863 9.25943 46.5857 9.25943 46.5857C8.29477 48.5727 9.08502 48.5597 9.08502 48.5597C10.2979 47.6518 11.6418 47.4618 11.8263 48.0302C11.8263 48.0302 12.61 50.2296 13.3287 50.7121C12.9856 48.7554 14.3925 46.9158 14.8093 46.3105C15.1711 45.8937 16.075 44.2802 15.5127 42.6059C15.2833 41.9205 14.3584 40.5503 14.0545 40.2888Z" fill="white"/>
<path d="M27.9303 40.2888C29.3712 41.3065 29.5115 43.7962 26.8296 45.0024C30.5732 44.4246 30.2497 40.4997 28.6272 39.6489C28.9934 39.2199 29.8719 38.6673 30.6014 38.512C32.0553 40.9418 31.8483 43.6272 32.043 43.9891C32.2601 44.4008 33.0286 45.8555 34.756 45.5059C34.0859 46.863 32.7297 46.5857 32.7297 46.5857C33.6937 48.5727 32.9041 48.5597 32.9041 48.5597C31.6913 47.6518 30.3474 47.4618 30.1629 48.0302C30.1629 48.0302 29.3791 50.2296 28.6605 50.7121C29.0035 48.7554 27.596 46.9158 27.1799 46.3105C26.818 45.8937 25.9142 44.2802 26.4765 42.6059C26.7022 41.9205 27.6264 40.5503 27.9303 40.2888Z" fill="white"/>
<path d="M35.2517 53.1007C35.2516 51.9454 34.8105 50.8336 34.0181 49.9915C33.2257 49.1494 32.1416 48.6402 30.9864 48.5676C30.8416 48.8623 29.3675 50.9461 29.3675 50.9461C29.1465 51.2304 28.8946 51.4894 28.6163 51.7182C29.5151 52.5806 31.0855 54.0541 28.6713 56.0519C29.1171 54.3618 28.0808 53.438 26.9446 53.0805C22.8139 56.4203 16.8921 54.2246 16.1756 53.8403C15.6777 53.5738 14.1254 52.5308 12.7599 50.9454C12.7599 50.9454 9.61404 49.9638 8.49017 53.1765C8.29912 51.4727 9.83549 49.4691 11.6432 49.4207C11.4753 49.1447 11.3183 48.8594 11.1772 48.5648C10.0612 48.6355 9.01038 49.1137 8.22509 49.9083C7.43981 50.7028 6.97501 51.758 6.91937 52.8727C6.86373 53.9874 7.22112 55.0835 7.92339 55.952C8.62566 56.8205 9.62366 57.4006 10.7271 57.5817C10.7406 57.5829 10.7534 57.5885 10.7634 57.5976C10.7735 57.6068 10.7803 57.6189 10.7828 57.6323H10.7929C13.6406 60.0201 10.6554 62.205 10.6554 62.205C12.8749 62.8435 13.6406 60.5943 13.6406 60.5943C13.6406 60.5943 15.2913 62.096 15.7103 62.3813C17.319 63.8677 16.7278 65.5925 16.7278 65.5925C19.2867 64.8132 18.728 63.5369 18.728 63.5369C19.7761 64.0195 20.6099 64.8699 21.0706 65.9262C21.5004 63.6929 23.5159 63.4856 23.5159 63.4856C27.2631 62.6406 28.3464 60.5655 28.3464 60.5655C29.0136 62.7287 31.4191 62.1631 31.4191 62.1631C28.3464 60.1162 31.1065 57.6576 31.1065 57.6576C32.5365 57.1975 32.564 57.243 32.9975 57.0198L33.0387 56.9931L33.0546 56.9851C33.1056 56.9588 33.1541 56.9279 33.1994 56.8927C33.8297 56.48 34.3473 55.9174 34.7055 55.2554C35.0638 54.5935 35.2515 53.853 35.2517 53.1007ZM17.2365 60.3806C13.5458 58.0519 15.5952 55.7897 17.6034 54.8955C17.607 54.8955 16.2111 56.0526 17.2365 60.3806ZM33.6842 53.0472C33.6842 53.0061 33.6842 52.9656 33.6886 52.923C33.6879 52.9649 33.6864 53.0061 33.6842 53.0472ZM33.6886 52.9223C33.6886 52.8992 33.6886 52.8768 33.6886 52.8537C33.69 52.8761 33.6886 52.8992 33.6886 52.9194V52.9223Z" fill="white"/>
</g>
<defs>
<clipPath id="clip0">
<rect width="42" height="65.924" fill="white"/>
</clipPath>
</defs>
</svg>
